# xmcd
#
# Track frame offsets:
#	150
#	22628
#	44886
#	65440
#	85641
#	105895
#	126340
#	148178
#	168727
#	191212
#
# Disc length: 2845 seconds
#
# Revision: 1
# Processed by: cddbd v1.4PL0 Copyright (c) Steve Scherf et al.
# Submitted via: audiograbber 1.81.01
#
DISCID=890b1b0a
DTITLE=Charles Wilson - It Ain't The Size
DYEAR=1900
DGENRE=
TTITLE0=If You've Got A Problem
TTITLE1=It Ain't The Size
TTITLE2=Give A Woman What She Wants
TTITLE3=We Ought To Be Doin' It
TTITLE4=Keep It A Secret
TTITLE5=Fireman
TTITLE6=Two Wrongs Made A Right
TTITLE7=Outside Woman
TTITLE8=You Can't Out Cheat A Cheater
TTITLE9=Cheater's Paradise
EXTD=
EXTT0=
EXTT1=
EXTT2=
EXTT3=
EXTT4=
EXTT5=
EXTT6=
EXTT7=
EXTT8=
EXTT9=
PLAYORDER=
